<svg width="80" height="80" viewBox="0 0 80 80" fill="none" xmlns="http://www.w3.org/2000/svg">
<path d="M78.5405 6.09488L73.9106 1.46495C73.4463 1.00051 72.895 0.63209 72.2882 0.380732C71.6815 0.129374 71.0312 0 70.3745 0C69.7177 0 69.0674 0.129374 68.4607 0.380732C67.8539 0.63209 67.3027 1.00051 66.8383 1.46495L59.6067 8.7044C59.0005 9.30893 58.544 10.0468 58.2738 10.8592L56.3737 16.5642L44.4575 28.4804C42.5574 27.1116 40.4729 26.0209 38.1915 25.4897C32.9647 24.274 27.7222 25.3522 24.147 28.9273C22.6885 30.3918 21.6038 32.1856 20.9843 34.1573C20.0468 37.0575 17.3576 39.2654 14.398 39.542C10.6947 39.8967 7.25235 41.3311 4.61471 43.986C-2.51693 51.0973 -1.23404 63.9105 7.43517 72.575C16.1044 81.2395 28.9082 82.5052 36.0273 75.3986C38.6837 72.7609 40.115 69.3201 40.4729 65.5996C40.7479 62.6541 42.9558 59.954 45.8528 59.0149C47.8249 58.3944 49.6191 57.3092 51.0844 55.8507C54.658 52.2755 55.7315 47.0439 54.5221 41.8265C53.9923 39.5389 52.9017 37.4512 51.5281 35.5449L63.4413 23.6318L69.1416 21.7317C69.9539 21.4614 70.6918 21.005 71.2964 20.3988L78.5358 13.1609C79.4725 12.224 79.9991 10.9537 80 9.62885C80.0009 8.30403 79.476 7.03301 78.5405 6.09488ZM32.5021 55.0037C31.0187 55.0037 29.5686 54.5639 28.3351 53.7397C27.1017 52.9155 26.1403 51.7441 25.5727 50.3736C25.005 49.0031 24.8564 47.495 25.1458 46.0401C25.4353 44.5851 26.1496 43.2487 27.1985 42.1998C28.2475 41.1508 29.5839 40.4365 31.0389 40.1471C32.4938 39.8577 34.0019 40.0062 35.3724 40.5739C36.7429 41.1416 37.9143 42.1029 38.7385 43.3363C39.5626 44.5698 40.0025 46.0199 40.0025 47.5033C40.0025 49.4926 39.2123 51.4003 37.8057 52.8069C36.3991 54.2135 34.4914 55.0037 32.5021 55.0037Z" fill="white"/>
</svg>
